<svg xmlns="http://www.w3.org/2000/svg" width="116" height="175" viewBox="0 0 116 175">
    <path fill="#E1DEE3" d="M0 28.93c0-11.16 10.63-20.2 23.75-20.2h68.5c13.12 0 23.75 9.04 23.75 20.2v108.55c0 6.36-6.06 11.52-13.54 11.52H13.54C6.06 149 0 143.84 0 137.48z"/>
    <path fill="#7B7B7B" fill-rule="evenodd" d="M92.25 8.73H66.52V7.36c.01-2.63-1.64-5.06-4.31-6.37-2.68-1.32-5.98-1.32-8.65 0-2.68 1.31-4.32 3.74-4.32 6.37v1.37H23.75C10.63 8.73 0 17.77 0 28.93V47.1c0 11.16 10.63 20.21 23.75 20.21h68.5c6.3 0 12.34-2.13 16.79-5.92C113.5 57.6 116 52.46 116 47.1V28.93c0-11.16-10.63-20.2-23.75-20.2M53.03 7.69c0-2.28 2.17-4.13 4.85-4.13s4.85 1.85 4.85 4.13v1.04h-9.7z"/>
    <path fill="#7B7B7B" d="M14.44 96.55c0-6.69 6.38-12.12 14.25-12.12h58.38c7.87 0 14.25 5.43 14.25 12.12v24.81c0 6.69-6.38 12.12-14.25 12.12H28.69c-7.87 0-14.25-5.43-14.25-12.12z"/>
    <path fill="#FF7878" d="M14.44 90.49c0-3.35 3.19-6.06 7.13-6.06H94.2c1.89 0 3.7.64 5.04 1.77 1.33 1.14 2.08 2.68 2.08 4.29v7.96c0 2.67-1.25 5.24-3.47 7.14-2.23 1.89-5.25 2.96-8.4 2.96H26.31c-6.55 0-11.87-4.52-11.87-10.1z"/>
    <path fill="#FFF" d="M49.24 114.83c0-.56.53-1.01 1.19-1.01h15.14c.66 0 1.19.45 1.19 1.01v7.5c0 .56-.53 1.02-1.19 1.02H50.43c-.66 0-1.19-.46-1.19-1.02z"/>
    <path fill="#FAB96F" d="M88.77 25.15c.4 0 .72-.27.72-.61v-1.62a.56.56 0 0 0-.21-.43.78.78 0 0 0-.51-.18H83.8V8.73h-7.1v13.58h-5.2c-.4 0-.72.27-.72.61v1.62c0 .34.32.61.72.61h5.2v31.62h-5.2c-.4 0-.72.27-.72.6V59c0 .33.32.61.72.61h5.2v46.42h-5.2c-.4 0-.72.27-.72.6v1.63c0 .33.32.6.72.6h5.2V149h7.1v-40.14h4.97c.19 0 .37-.06.51-.17.13-.12.21-.27.21-.43v-1.63c0-.33-.32-.6-.72-.6H83.8V59.61h4.97c.4 0 .72-.28.72-.61v-1.63c0-.33-.32-.6-.72-.6H83.8V25.15zm-44.5 0c.39 0 .71-.27.71-.61v-1.62c0-.34-.32-.61-.71-.61h-5.21V8.73h-7.1v13.58h-4.97c-.19 0-.37.06-.5.18a.53.53 0 0 0-.21.43v1.62c0 .34.32.61.71.61h4.97v31.62h-4.97c-.39 0-.71.27-.71.6V59c0 .33.32.61.71.61h4.97v46.42h-4.97c-.39 0-.71.27-.71.6v1.63c0 .16.07.31.21.43.13.11.31.17.5.17h4.97V149h7.1v-40.14h5.21c.19 0 .37-.06.5-.17.13-.12.21-.27.21-.43v-1.63c0-.33-.32-.6-.71-.6h-5.21V59.61h5.21c.39 0 .71-.28.71-.61v-1.63c0-.33-.32-.6-.71-.6h-5.21V25.15z"/>
</svg>
