<svg xmlns="http://www.w3.org/2000/svg"
    viewBox="0 0 600 600"
    width="600"
    height="600">
    <path
        d="M301.21 418.53c-.24.01-.48.03-.72.03-3.4.03-6.75-.84-9.7-2.51l-68.19-38.51c-1.97-1.11-3.6-2.72-4.75-4.66a12.8 12.8 0 0 1-1.78-6.41v-78.31c-.01-.84.02-1.67.1-2.49.21-2.13.74-4.17 1.54-6.07l-18.42-11.33-21.55-12.08c-2.02 4.24-3.01 9.04-2.96 14.03l.01 116.83c.06 6.84 3.78 13.15 9.74 16.51l101.73 57.46c4.41 2.49 9.4 3.78 14.47 3.74.18 0 .36-.02.54-.02l-.05-25.51z"
        fill="#041619" />
    <path
        d="m409.45 242.91-96.81-54.68c-9-5.08-20.06-4.97-28.96.28L187.92 245c-4.61 2.73-7.99 6.62-10.17 11.17l-.01.02 21.55 12.08 18.42 11.33c.12-.28.21-.58.34-.86.19-.38.38-.76.59-1.12.42-.74.88-1.44 1.4-2.11 1.33-1.71 2.97-3.16 4.83-4.26l64.19-37.86c1.36-.8 2.81-1.43 4.33-1.88 2.14-.64 4.38-.91 6.61-.79 2.98.16 5.88 1.01 8.47 2.48l64.9 36.65c2.17 1.23 4.12 2.83 5.76 4.72.55.62 1.05 1.28 1.52 1.96.21.31.4.62.59.94l16.55-11.08 22.55-13.46-.03-.05c-2.76-4.08-6.54-7.53-10.86-9.97"
        fill="#37BF6E" />
    <path
        d="M381.24 277.47c.27.45.53.91.77 1.37.2.4.38.81.56 1.22.34.82.62 1.67.84 2.53.33 1.29.51 2.62.52 3.98v74.53c.03 2.85-.58 5.67-1.77 8.26-.23.5-.47.99-.74 1.47-1.67 2.96-4.1 5.44-7.03 7.17l-64.19 37.87a19.4 19.4 0 0 1-8.99 2.66l.01 20.7.05 25.51c4.83-.13 9.64-1.44 13.94-3.99l95.77-56.5c8.9-5.25 14.33-14.88 14.24-25.22V267.85c-.05-5.37-1.88-10.51-4.88-14.92l-22.55 13.46z"
        fill="#3870B2" />
    <path
        d="M177.75 256.17c2.18-4.55 5.56-8.44 10.17-11.17l95.76-56.49c8.9-5.25 19.96-5.36 28.96-.28l96.81 54.68c4.32 2.44 8.1 5.89 10.86 9.97l.03.05 78.25-46.74c-4.56-6.73-10.8-12.41-17.92-16.44L320.86 99.49c-14.85-8.39-33.11-8.22-47.79.46L114.99 193.2c-7.6 4.49-13.18 10.91-16.78 18.43l79.53 44.56zm123.52 208.57c-.18 0-.36.02-.54.02-5.07.04-10.06-1.25-14.47-3.74l-101.73-57.46a19.17 19.17 0 0 1-9.74-16.51l-.01-116.83c-.05-4.99.94-9.79 2.96-14.03l-79.53-44.56c-3.35 7-4.98 14.95-4.9 23.19v192.85c.11 11.3 6.23 21.7 16.09 27.25l167.91 94.85a47.84 47.84 0 0 0 23.89 6.17v-.14c.19-12.02.13-60.54.07-91.06Z"
        fill="none"
        stroke="#083042"
        stroke-width="10" />
    <path
        d="m498.59 206.19-78.25 46.74c3 4.41 4.83 9.55 4.88 14.92v111.18c.09 10.34-5.34 19.97-14.24 25.22l-95.77 56.5c-4.3 2.55-9.11 3.86-13.94 3.99.06 30.52.12 79.04-.07 91.06v.14c8.28-.07 16.54-2.26 23.91-6.62l158.07-93.26c14.69-8.67 23.67-24.57 23.51-41.63V230.91c-.09-8.89-3.12-17.41-8.1-24.72Z"
        fill="none"
        stroke="#083042"
        stroke-width="10" />
    <path
        d="M301.2 555.94c-8.36.07-16.6-2.06-23.89-6.18L109.4 454.92c-9.86-5.55-15.98-15.95-16.09-27.25V234.82c-.08-8.24 1.55-16.19 4.9-23.19 3.6-7.52 9.18-13.94 16.78-18.43l158.08-93.25c14.68-8.68 32.94-8.85 47.79-.46l159.81 90.26c7.12 4.03 13.36 9.71 17.92 16.44 4.98 7.31 8.01 15.83 8.1 24.72v183.52c.16 17.06-8.82 32.96-23.51 41.63l-158.07 93.26c-7.37 4.36-15.63 6.55-23.91 6.62Z"
        fill="none"
        stroke="#083042"
        stroke-width="10" />
</svg>
