<svg xmlns="http://www.w3.org/2000/svg" viewBox="0 0 136 177" width="136" height="177">
    <path fill="#E1DEE3" d="M68 2c11.48.01 22.95 0 34.43.02 1.89 0 3.79.02 5.69.05 1.25.02 2.49.04 3.74.08 1.71.06 3.48.14 5.18.28.66.05 1.32.11 1.97.18.57.07 1.14.14 1.71.23 3.37.51 6.89 1.45 9.46 3.82.47.42.89.88 1.27 1.37.83 1.07 1.46 2.29 1.94 3.56.62 1.67 1.01 3.43 1.27 5.19.3 1.99.46 4 .57 6 .21 4.09.25 8.2.25 12.29.02 11.48.01 22.95.02 34.43v40c-.01 11.48 0 22.95-.02 34.43 0 1.89-.02 3.79-.05 5.69-.02 1.25-.04 2.5-.08 3.74-.06 1.71-.14 3.48-.28 5.18-.05.66-.11 1.32-.18 1.97-.07.57-.14 1.14-.23 1.71-.46 3.07-1.28 6.25-3.21 8.75-.38.49-.81.95-1.27 1.37-2.57 2.37-6.09 3.31-9.46 3.82-.57.09-1.14.16-1.71.23-1.41.15-2.87.26-4.29.34-2.16.11-4.46.17-6.6.2-1.9.03-3.8.05-5.69.05-11.48.02-22.95.01-34.43.02-11.48-.01-22.95 0-34.43-.02-1.89 0-3.79-.02-5.69-.05-2.97-.04-5.95-.12-8.92-.36-1.74-.13-3.48-.33-5.19-.67-1.61-.31-3.2-.75-4.69-1.43-.9-.41-1.76-.91-2.55-1.52-.49-.38-.95-.8-1.37-1.27-2.37-2.57-3.31-6.09-3.82-9.46-.09-.57-.16-1.14-.23-1.71-.07-.65-.13-1.31-.18-1.97-.14-1.7-.22-3.47-.28-5.18-.04-1.24-.06-2.49-.08-3.74-.03-1.9-.05-3.8-.05-5.69C.5 132.45.51 120.98.5 109.5v-40c.01-11.48 0-22.95.02-34.43 0-4.09.04-8.2.25-12.29.16-2.97.41-5.97 1.13-8.86.52-2.1 1.32-4.17 2.65-5.89.38-.49.81-.95 1.26-1.37 2.58-2.37 6.1-3.31 9.47-3.82.57-.09 1.14-.16 1.71-.23.65-.07 1.31-.13 1.97-.18 1.7-.14 3.47-.22 5.18-.28 1.24-.04 2.49-.06 3.74-.08 1.9-.03 3.8-.05 5.69-.05C45.05 2 56.52 2.01 68 2"/>
    <path fill="#636940" d="M85.5 96.5c0-4.14 3.36-7.5 7.5-7.5s7.5 3.36 7.5 7.5-3.36 7.5-7.5 7.5-7.5-3.36-7.5-7.5"/>
    <path fill="#636940" d="M36.5 96.5c0-4.14 3.36-7.5 7.5-7.5s7.5 3.36 7.5 7.5-3.36 7.5-7.5 7.5-7.5-3.36-7.5-7.5"/>
    <path stroke="gray" stroke-width="4" d="M67.5 2v140"/>
    <path stroke="gray" d="M.5 142h135"/>
</svg>
